<svg id="Grupo_3809" data-name="Grupo 3809" xmlns="http://www.w3.org/2000/svg" width="26.668" height="29.955" viewBox="0 0 26.668 29.955">
  <path id="Trazado_68002" data-name="Trazado 68002" d="M13.51,14.242h.6V13.3h-.6A1.28,1.28,0,0,1,12.215,12V4.71A1.3,1.3,0,0,1,13.51,3.415H20.8A1.3,1.3,0,0,1,22.1,4.71V12A1.28,1.28,0,0,1,20.8,13.3h-.6v.947h.6a2.2,2.2,0,0,0,2.21-2.21V4.71A2.2,2.2,0,0,0,20.8,2.5H13.51A2.2,2.2,0,0,0,11.3,4.71V12A2.223,2.223,0,0,0,13.51,14.242Z" transform="translate(-10.2 -2.5)" fill="#fff"/>
  <path id="Trazado_68003" data-name="Trazado 68003" d="M25.36,32.049a1.8,1.8,0,0,0-.41-.032,2.012,2.012,0,0,0-1.389.537,2.09,2.09,0,0,0-1.989-1.389,1.8,1.8,0,0,0-.41.032,2.047,2.047,0,0,0-1.01.505A2.118,2.118,0,0,0,18.2,30.408H18.1a2.209,2.209,0,0,0-1.168.442v-4.7a2.14,2.14,0,0,0-1.7-2.115,1.8,1.8,0,0,0-.41-.032A2.115,2.115,0,0,0,12.7,26.115v9.627l-.852-1.168a2.294,2.294,0,0,0-1.2-.852,2.035,2.035,0,0,0-.631-.095,2.276,2.276,0,0,0-1.263.379h0a2.256,2.256,0,0,0-.694,2.872l3.63,7.1A5.846,5.846,0,0,0,16.9,47.169h4.324A5.836,5.836,0,0,0,27.1,41.645V34.2A2.263,2.263,0,0,0,25.36,32.049Zm.789,9.406v.158a4.9,4.9,0,0,1-4.924,4.64H16.869a4.9,4.9,0,0,1-4.388-2.683l-3.63-7.1a1.329,1.329,0,0,1,.41-1.7,1.228,1.228,0,0,1,.726-.221,1.584,1.584,0,0,1,.379.063,1.426,1.426,0,0,1,.694.505l1.831,2.462a.438.438,0,0,0,.316.158.384.384,0,0,0,.379-.379V26.083a1.2,1.2,0,0,1,1.2-1.2.7.7,0,0,1,.253.032,1.226,1.226,0,0,1,.947,1.231v9.564a.505.505,0,0,0,1.01,0V32.617a1.244,1.244,0,0,1,1.136-1.263H18.2a1.2,1.2,0,0,1,1.2,1.2v3.662a.505.505,0,0,0,1.01,0V33.343a1.192,1.192,0,0,1,.947-1.2c.095,0,.158-.032.221-.032a1.2,1.2,0,0,1,1.2,1.2v3.472a.505.505,0,0,0,1.01,0v-2.62a1.2,1.2,0,0,1,1.2-1.2A.537.537,0,0,1,25.2,33a1.192,1.192,0,0,1,.947,1.2v7.26Z" transform="translate(-7.815 -17.213)" fill="#fff"/>
  <path id="Trazado_68004" data-name="Trazado 68004" d="M64.974,10.111,59.2,5.692a.5.5,0,0,0-.473-.063.455.455,0,0,0-.253.41v2.21H53.105a.473.473,0,1,0,0,.947h5.84a.485.485,0,0,0,.473-.473V6.986l4.545,3.472L59.418,13.93V12.194a.485.485,0,0,0-.473-.473H53.073a.473.473,0,1,0,0,.947H58.44v2.21a.423.423,0,0,0,.253.41.449.449,0,0,0,.189.063.509.509,0,0,0,.284-.095l5.776-4.419a.45.45,0,0,0,.189-.379A.507.507,0,0,0,64.974,10.111Z" transform="translate(-38.463 -4.619)" fill="#fff"/>
</svg>
